<mxfile host="app.diagrams.net" modified="2021-12-23T09:37:56.570Z" agent="5.0 (Windows NT 10.0; Win64; x64) AppleWebKit/537.36 (KHTML, like Gecko) Chrome/96.0.4664.110 Safari/537.36" etag="V3clYuu6VIQwu5H-Sze_" version="15.9.6" type="github">
  <diagram id="UgWwUjzvCQ6DFLD37Q7z" name="第 1 页">
    <mxGraphModel dx="865" dy="483" grid="0" gridSize="10" guides="1" tooltips="1" connect="1" arrows="1" fold="1" page="0" pageScale="1" pageWidth="827" pageHeight="1169" math="0" shadow="0">
      <root>
        <mxCell id="0" />
        <mxCell id="1" parent="0" />
        <mxCell id="teVdkq-L4--7aLtD-7wO-7" value="" style="edgeStyle=orthogonalEdgeStyle;rounded=0;orthogonalLoop=1;jettySize=auto;html=1;fontSize=12;fontColor=#000000;strokeColor=#000000;" edge="1" parent="1" source="teVdkq-L4--7aLtD-7wO-1" target="teVdkq-L4--7aLtD-7wO-6">
          <mxGeometry relative="1" as="geometry" />
        </mxCell>
        <mxCell id="teVdkq-L4--7aLtD-7wO-1" value="&lt;font style=&quot;font-size: 14px;&quot;&gt;put&lt;/font&gt;" style="strokeWidth=1;html=1;shape=mxgraph.flowchart.start_2;whiteSpace=wrap;labelBorderColor=none;strokeColor=#82b366;perimeterSpacing=1;fillColor=#d5e8d4;shadow=1;fontSize=14;" vertex="1" parent="1">
          <mxGeometry x="400" y="40" width="80" height="80" as="geometry" />
        </mxCell>
        <mxCell id="teVdkq-L4--7aLtD-7wO-6" value="根据key算出&lt;br&gt;hash值" style="verticalLabelPosition=middle;verticalAlign=middle;html=1;shape=hexagon;perimeter=hexagonPerimeter2;arcSize=6;size=0.27;shadow=1;labelBorderColor=none;fontSize=12;strokeColor=default;strokeWidth=1;gradientColor=none;labelPosition=center;align=center;" vertex="1" parent="1">
          <mxGeometry x="375" y="160" width="130" height="60" as="geometry" />
        </mxCell>
        <mxCell id="teVdkq-L4--7aLtD-7wO-9" value="" style="shape=curlyBracket;whiteSpace=wrap;html=1;rounded=1;" vertex="1" parent="1">
          <mxGeometry x="508" y="130" width="20" height="120" as="geometry" />
        </mxCell>
        <mxCell id="teVdkq-L4--7aLtD-7wO-11" value="①：获取key的hashcode" style="rounded=1;whiteSpace=wrap;html=1;absoluteArcSize=1;arcSize=14;strokeWidth=1;" vertex="1" parent="1">
          <mxGeometry x="534" y="102" width="107" height="58" as="geometry" />
        </mxCell>
        <mxCell id="teVdkq-L4--7aLtD-7wO-12" value="②：①的值无符号右移" style="rounded=1;whiteSpace=wrap;html=1;absoluteArcSize=1;arcSize=14;strokeWidth=1;" vertex="1" parent="1">
          <mxGeometry x="534" y="220" width="107" height="58" as="geometry" />
        </mxCell>
        <mxCell id="teVdkq-L4--7aLtD-7wO-13" value="" style="shape=curlyBracket;whiteSpace=wrap;html=1;rounded=1;flipH=1;strokeWidth=1;" vertex="1" parent="1">
          <mxGeometry x="646" y="130" width="20" height="120" as="geometry" />
        </mxCell>
        <mxCell id="teVdkq-L4--7aLtD-7wO-14" value="①和②作异或运算" style="rounded=1;whiteSpace=wrap;html=1;absoluteArcSize=1;arcSize=14;strokeWidth=1;" vertex="1" parent="1">
          <mxGeometry x="666" y="160" width="107" height="58" as="geometry" />
        </mxCell>
      </root>
    </mxGraphModel>
  </diagram>
</mxfile>
